<svg width="1920" height="529" viewBox="0 0 1920 529" fill="none" xmlns="http://www.w3.org/2000/svg">
<path d="M1804.34 498.9L1785.7 504.023L1810.12 480.327C1819.12 472.001 1828.11 463.676 1838.39 456.631L1844.82 452.148L1837.11 450.867C1758.72 441.26 1648.2 388.745 1643.06 386.823L1623.78 377.857L1644.98 377.217C1702.81 375.936 1749.08 379.778 1777.35 382.981L1788.92 384.261L1779.28 377.217C1770.28 370.812 1761.29 363.127 1751.65 354.161C1711.81 317.016 1679.68 272.185 1657.19 219.669L1644.98 190.85L1656.55 195.333C1767.07 240.804 1830.04 303.567 1862.81 347.757L1871.81 358.644L1869.24 345.195C1867.31 335.588 1866.02 325.341 1864.74 315.094C1855.1 233.119 1866.02 147.3 1896.23 67.2458L1920 1.92131L0 0L22.4897 67.8862C52.6901 147.941 62.971 233.759 53.9752 315.735C52.6901 325.982 51.4049 336.229 49.4772 345.835L46.907 358.644L55.2603 347.757C88.6735 303.567 151.645 240.804 261.523 195.333L273.089 190.85L260.88 219.669C238.39 271.545 206.905 317.016 167.066 354.161C158.07 362.487 148.432 370.172 139.436 377.217L129.797 384.261L141.364 382.981C170.279 379.778 215.901 376.576 273.731 377.217L294.936 377.857L275.659 386.823C271.161 388.745 160.64 441.26 81.6053 450.867L73.8946 452.148L80.3202 456.631C89.9586 463.676 99.5971 472.001 108.593 480.327L133.01 504.023L114.376 498.9C80.9628 489.933 50.7624 478.406 22.4897 462.395L17.3492 459.192L23.1322 529H1896.23C1896.87 520.674 1897.51 490.574 1897.51 486.731L1900.08 459.192L1894.94 461.754C1864.74 479.686 1835.82 489.293 1804.34 498.9Z" fill="url(#paint0_linear_526_2283)"/>
<defs>
<linearGradient id="paint0_linear_526_2283" x1="960" y1="0" x2="960" y2="529" gradientUnits="userSpaceOnUse">
<stop stop-color="#EA8392"/>
<stop offset="0.469907" stop-color="#F68C4B"/>
<stop offset="1" stop-color="#E27E63"/>
</linearGradient>
</defs>
</svg>
